<svg width="64" height="64" viewBox="0 0 64 64" fill="none" xmlns="http://www.w3.org/2000/svg">
<rect width="64" height="64" fill="black"/>
<g filter="url(#filter0_d_263_5)">
<path d="M7.21973 37.6572C7.12207 38.6338 6.58496 39.1628 5.6084 39.2441C5.15267 39.2441 4.75391 39.0977 4.41211 38.8047C4.08659 38.4954 3.92383 38.113 3.92383 37.6572V26.1338C3.9401 25.6781 4.111 25.3037 4.43652 25.0107C4.76204 24.7015 5.15267 24.5469 5.6084 24.5469H15.8623C17.2946 24.5957 18.377 24.9131 19.1094 25.499C19.8418 26.0687 20.3708 26.7197 20.6963 27.4521C21.0218 28.1846 21.1846 28.9251 21.1846 29.6738C21.1846 30.4551 21.0218 31.2119 20.6963 31.9443C20.387 32.6768 19.8581 33.3359 19.1094 33.9219C18.377 34.4915 17.4411 34.7682 16.3018 34.752H10.1494C9.69368 34.752 9.3112 34.5892 9.00195 34.2637C8.67643 33.9544 8.51367 33.5719 8.51367 33.1162C8.51367 32.6605 8.66829 32.278 8.97754 31.9688C9.30306 31.6432 9.69368 31.4805 10.1494 31.4805H16.4482C16.7575 31.4805 17.0098 31.3828 17.2051 31.1875C17.4167 30.9759 17.5713 30.7399 17.6689 30.4795C17.7666 30.2028 17.8154 29.9261 17.8154 29.6494C17.8154 29.389 17.7666 29.1286 17.6689 28.8682C17.5713 28.5915 17.4167 28.3555 17.2051 28.1602C17.0098 27.9486 16.7575 27.8346 16.4482 27.8184H7.85449C7.43132 27.8346 7.21973 28.0462 7.21973 28.4531V37.6572ZM46.5996 37.6572C46.502 38.6338 45.9648 39.1628 44.9883 39.2441C44.5326 39.2441 44.1338 39.0977 43.792 38.8047C43.4665 38.4954 43.3037 38.113 43.3037 37.6572V26.1338C43.32 25.6781 43.4909 25.3037 43.8164 25.0107C44.1419 24.7015 44.5326 24.5469 44.9883 24.5469H55.2422C56.6745 24.5957 57.7568 24.9131 58.4893 25.499C59.2217 26.0687 59.7507 26.7197 60.0762 27.4521C60.4017 28.1846 60.5645 28.9251 60.5645 29.6738C60.5645 30.4551 60.4017 31.2119 60.0762 31.9443C59.7669 32.6768 59.238 33.3359 58.4893 33.9219C57.7568 34.4915 56.821 34.7682 55.6816 34.752H49.5293C49.0736 34.752 48.6911 34.5892 48.3818 34.2637C48.0563 33.9544 47.8936 33.5719 47.8936 33.1162C47.8936 32.6605 48.0482 32.278 48.3574 31.9688C48.6829 31.6432 49.0736 31.4805 49.5293 31.4805H55.8281C56.1374 31.4805 56.3896 31.3828 56.585 31.1875C56.7965 30.9759 56.9512 30.7399 57.0488 30.4795C57.1465 30.2028 57.1953 29.9261 57.1953 29.6494C57.1953 29.389 57.1465 29.1286 57.0488 28.8682C56.9512 28.5915 56.7965 28.3555 56.585 28.1602C56.3896 27.9486 56.1374 27.8346 55.8281 27.8184H47.2344C46.8112 27.8346 46.5996 28.0462 46.5996 28.4531V37.6572Z" fill="#5AA86B"/>
<path d="M23.9434 26.1826C23.9434 25.7269 24.098 25.3444 24.4072 25.0352C24.7327 24.7096 25.1234 24.5469 25.5791 24.5469H35.0029C35.1006 24.5469 35.1982 24.555 35.2959 24.5713H35.4424C36.5817 24.6038 37.5176 24.8643 38.25 25.3525C38.9824 25.8408 39.5114 26.4023 39.8369 27.0371C40.1624 27.6556 40.3252 28.2822 40.3252 28.917C40.3252 29.568 40.1624 30.2109 39.8369 30.8457C39.5277 31.4642 38.9987 32.0176 38.25 32.5059C37.5176 32.9941 36.5817 33.2546 35.4424 33.2871H28.5088C28.1995 33.3034 27.9391 33.3766 27.7275 33.5068C27.5322 33.637 27.3857 33.8079 27.2881 34.0195C27.1904 34.2148 27.1416 34.3695 27.1416 34.4834V34.9961C27.1416 35.2077 27.1904 35.3704 27.2881 35.4844C27.402 35.5983 27.6136 35.6471 27.9229 35.6309H38.5674C39.0231 35.6309 39.4056 35.7936 39.7148 36.1191C40.0404 36.4284 40.2031 36.8109 40.2031 37.2666C40.2031 37.7223 40.0404 38.113 39.7148 38.4385C39.4056 38.7477 39.0231 38.9023 38.5674 38.9023H26.6045C25.693 38.9023 24.9932 38.6826 24.5049 38.2432C24.0329 37.7874 23.7887 37.1445 23.7725 36.3145V34.4834C23.7725 33.8161 23.9271 33.165 24.2363 32.5303C24.5618 31.8792 25.0908 31.3096 25.8232 30.8213C26.5719 30.3167 27.516 30.0482 28.6553 30.0156H35.5889C35.8981 29.9993 36.1504 29.9342 36.3457 29.8203C36.5573 29.6901 36.7119 29.5518 36.8096 29.4053C36.9072 29.2425 36.9561 29.0798 36.9561 28.917C36.9561 28.7542 36.9072 28.5996 36.8096 28.4531C36.7119 28.2904 36.5573 28.152 36.3457 28.0381C36.1504 27.9079 35.8981 27.8346 35.5889 27.8184H25.5791C25.1234 27.8184 24.7409 27.6556 24.4316 27.3301C24.1061 27.0208 23.9434 26.6383 23.9434 26.1826Z" fill="white"/>
</g>
<defs>
<filter id="filter0_d_263_5" x="3.62383" y="24.5469" width="57.2406" height="16.9973" filterUnits="userSpaceOnUse" color-interpolation-filters="sRGB">
<feFlood flood-opacity="0" result="BackgroundImageFix"/>
<feColorMatrix in="SourceAlpha" type="matrix" values="0 0 0 0 0 0 0 0 0 0 0 0 0 0 0 0 0 0 127 0" result="hardAlpha"/>
<feOffset dy="2"/>
<feGaussianBlur stdDeviation="0.15"/>
<feComposite in2="hardAlpha" operator="out"/>
<feColorMatrix type="matrix" values="0 0 0 0 0.12549 0 0 0 0 0.556863 0 0 0 0 0.403922 0 0 0 0.19 0"/>
<feBlend mode="normal" in2="BackgroundImageFix" result="effect1_dropShadow_263_5"/>
<feBlend mode="normal" in="SourceGraphic" in2="effect1_dropShadow_263_5" result="shape"/>
</filter>
</defs>
</svg>
